<svg width="15" height="14" viewBox="0 0 15 14" fill="none" xmlns="http://www.w3.org/2000/svg">
<path d="M14 10C14 10.3536 13.8595 10.6928 13.6095 10.9428C13.3594 11.1929 13.0203 11.3334 12.6667 11.3334H3.88535C3.53176 11.3334 3.19268 11.474 2.94269 11.724L1.47469 13.192C1.40849 13.2582 1.32416 13.3033 1.23235 13.3215C1.14054 13.3398 1.04537 13.3304 0.958892 13.2946C0.872409 13.2588 0.798489 13.1981 0.746477 13.1203C0.694466 13.0425 0.666699 12.951 0.666687 12.8574V2.00002C0.666687 1.6464 0.807163 1.30726 1.05721 1.05721C1.30726 0.807163 1.6464 0.666687 2.00002 0.666687H12.6667C13.0203 0.666687 13.3594 0.807163 13.6095 1.05721C13.8595 1.30726 14 1.6464 14 2.00002V10Z" stroke="#1A1A1A" stroke-width="1.33333" stroke-linecap="round" stroke-linejoin="round"/>
</svg>
