<svg width="15" height="15" viewBox="0 0 15 15" fill="none" xmlns="http://www.w3.org/2000/svg">
<path d="M6.06667 8.60004C6.79256 9.3257 7.63318 9.92665 8.55467 10.3787C8.69235 10.4419 8.84747 10.4564 8.99446 10.4197C9.14146 10.3829 9.27156 10.2973 9.36334 10.1767L9.6 9.8667C9.7242 9.70111 9.88524 9.5667 10.0704 9.47413C10.2555 9.38156 10.4597 9.33337 10.6667 9.33337H12.6667C13.0203 9.33337 13.3594 9.47385 13.6095 9.72389C13.8595 9.97394 14 10.3131 14 10.6667V12.6667C14 13.0203 13.8595 13.3595 13.6095 13.6095C13.3594 13.8596 13.0203 14 12.6667 14C11.0908 14 9.53036 13.6897 8.07445 13.0866C6.61853 12.4836 5.29565 11.5997 4.18134 10.4854M14 0.666687L0.666687 14M2.50669 8.38802C1.30402 6.47445 0.666213 4.26014 0.666687 2.00002C0.666687 1.6464 0.807163 1.30726 1.05721 1.05721C1.30726 0.807163 1.6464 0.666687 2.00002 0.666687H4.00002C4.35364 0.666687 4.69278 0.807163 4.94283 1.05721C5.19288 1.30726 5.33335 1.6464 5.33335 2.00002V4.00002C5.33335 4.20701 5.28516 4.41116 5.19259 4.5963C5.10002 4.78145 4.96562 4.94249 4.80002 5.06669L4.48802 5.30069C4.36563 5.39414 4.27937 5.52708 4.24388 5.67692C4.2084 5.82676 4.22588 5.98427 4.29335 6.12269C4.34557 6.22882 4.39981 6.33395 4.45602 6.43802" stroke="white" stroke-width="1.33333" stroke-linecap="round" stroke-linejoin="round"/>
</svg>
