<svg width="11" height="15" viewBox="0 0 11 15" fill="none" xmlns="http://www.w3.org/2000/svg">
<path d="M5.33332 12V14M5.33332 12C6.571 12 7.75798 11.5084 8.63315 10.6332C9.50832 9.75802 9.99999 8.57103 9.99999 7.33335V6.00002M5.33332 12C4.09565 12 2.90866 11.5084 2.03349 10.6332C1.15832 9.75802 0.666657 8.57103 0.666656 7.33335V6.00002M5.33332 0.666687C6.43789 0.666687 7.33332 1.56212 7.33332 2.66669V7.33335C7.33332 8.43792 6.43789 9.33335 5.33332 9.33335C4.22875 9.33335 3.33332 8.43792 3.33332 7.33335V2.66669C3.33332 1.56212 4.22875 0.666687 5.33332 0.666687Z" stroke="#1A1A1A" stroke-width="1.33333" stroke-linecap="round" stroke-linejoin="round"/>
</svg>
