<svg width="15" height="14" viewBox="0 0 15 14" fill="none" xmlns="http://www.w3.org/2000/svg">
<path d="M10 12.6667V11.3333C10 10.6261 9.71905 9.94781 9.21895 9.44772C8.71885 8.94762 8.04058 8.66667 7.33333 8.66667H3.33333C2.62609 8.66667 1.94781 8.94762 1.44771 9.44772C0.947618 9.94781 0.666666 10.6261 0.666666 11.3333V12.6667M10 0.752C10.5718 0.900247 11.0783 1.23418 11.4398 1.70138C11.8013 2.16857 11.9975 2.74259 11.9975 3.33333C11.9975 3.92407 11.8013 4.49809 11.4398 4.96529C11.0783 5.43249 10.5718 5.76642 10 5.91467M14 12.6667V11.3333C13.9996 10.7425 13.8029 10.1685 13.4409 9.70154C13.0789 9.23457 12.5721 8.90104 12 8.75333M8 3.33333C8 4.80609 6.80609 6 5.33333 6C3.86057 6 2.66667 4.80609 2.66667 3.33333C2.66667 1.86058 3.86057 0.666668 5.33333 0.666668C6.80609 0.666668 8 1.86058 8 3.33333Z" stroke="#666666" stroke-width="1.33333" stroke-linecap="round" stroke-linejoin="round"/>
</svg>
