<svg width="14" height="15" viewBox="0 0 14 15" fill="none" xmlns="http://www.w3.org/2000/svg">
<path d="M5.08493 2.07907C5.12166 1.69263 5.30115 1.33377 5.58833 1.07259C5.87551 0.811413 6.24974 0.666687 6.63793 0.666687C7.02611 0.666687 7.40035 0.811413 7.68753 1.07259C7.97471 1.33377 8.15419 1.69263 8.19093 2.07907C8.213 2.32871 8.2949 2.56935 8.42968 2.78063C8.56446 2.99191 8.74817 3.16761 8.96524 3.29285C9.18231 3.4181 9.42636 3.4892 9.67673 3.50015C9.9271 3.51109 10.1764 3.46156 10.4036 3.35574C10.7563 3.19559 11.156 3.17241 11.5249 3.29073C11.8938 3.40904 12.2055 3.66037 12.3993 3.99581C12.5931 4.33124 12.6551 4.72678 12.5734 5.10545C12.4916 5.48411 12.2719 5.81881 11.9569 6.0444C11.7518 6.1883 11.5844 6.37947 11.4689 6.60175C11.3533 6.82403 11.293 7.07087 11.293 7.3214C11.293 7.57193 11.3533 7.81877 11.4689 8.04105C11.5844 8.26333 11.7518 8.4545 11.9569 8.5984C12.2719 8.82399 12.4916 9.15869 12.5734 9.53735C12.6551 9.91602 12.5931 10.3116 12.3993 10.647C12.2055 10.9824 11.8938 11.2338 11.5249 11.3521C11.156 11.4704 10.7563 11.4472 10.4036 11.2871C10.1764 11.1812 9.9271 11.1317 9.67673 11.1427C9.42636 11.1536 9.18231 11.2247 8.96524 11.3499C8.74817 11.4752 8.56446 11.6509 8.42968 11.8622C8.2949 12.0735 8.213 12.3141 8.19093 12.5637C8.15419 12.9502 7.97471 13.309 7.68753 13.5702C7.40035 13.8314 7.02611 13.9761 6.63793 13.9761C6.24974 13.9761 5.87551 13.8314 5.58833 13.5702C5.30115 13.309 5.12166 12.9502 5.08493 12.5637C5.06289 12.314 4.98099 12.0733 4.84617 11.8619C4.71135 11.6506 4.52758 11.4748 4.31042 11.3496C4.09326 11.2243 3.84911 11.1532 3.59865 11.1423C3.34819 11.1315 3.09879 11.1811 2.87159 11.2871C2.51885 11.4472 2.11914 11.4704 1.75026 11.3521C1.38138 11.2338 1.06971 10.9824 0.875915 10.647C0.682123 10.3116 0.620069 9.91602 0.701833 9.53735C0.783597 9.15869 1.00333 8.82399 1.31826 8.5984C1.52334 8.4545 1.69075 8.26333 1.80632 8.04105C1.92189 7.81877 1.98223 7.57193 1.98223 7.3214C1.98223 7.07087 1.92189 6.82403 1.80632 6.60175C1.69075 6.37947 1.52334 6.1883 1.31826 6.0444C1.00377 5.8187 0.784427 5.48413 0.702861 5.10572C0.621295 4.72731 0.683332 4.3321 0.876916 3.99688C1.0705 3.66166 1.3818 3.41039 1.75032 3.2919C2.11884 3.1734 2.51825 3.19616 2.87093 3.35574C3.0981 3.46156 3.34742 3.51109 3.59779 3.50015C3.84817 3.4892 4.09221 3.4181 4.30928 3.29285C4.52635 3.16761 4.71006 2.99191 4.84484 2.78063C4.97962 2.56935 5.06152 2.32871 5.08359 2.07907M8.63759 7.32172C8.63759 8.42629 7.74216 9.32172 6.63759 9.32172C5.53302 9.32172 4.63759 8.42629 4.63759 7.32172C4.63759 6.21715 5.53302 5.32172 6.63759 5.32172C7.74216 5.32172 8.63759 6.21715 8.63759 7.32172Z" stroke="#1A1A1A" stroke-width="1.33333" stroke-linecap="round" stroke-linejoin="round"/>
</svg>
